<svg xmlns="http://www.w3.org/2000/svg" xmlns:xlink="http://www.w3.org/1999/xlink" version="1.1" width="1335.4723pt" height="757.8886pt" viewBox="0 0 1335.4723 757.8886">
<g id="layer_1" data-name="">
<path transform="matrix(6.32635,0,0,-6.32635,1,756.8886)" stroke-width="4.407" stroke-linecap="round" stroke-linejoin="round" fill="none" stroke="#ffffff" d="M70.2303 28.1296C71.9821 26.6794 72.4105 25.3378 72.7608 24.1773L77.51 9.1295C77.8603 7.9693 78.1716 5.9026 80.6241 4.2347 82.0647 3.2556 83.9721 2.6028 85.646 2.2039L90.2004 17.6505 92.9642 8.9121C94.0156 5.6123 94.1323 5.4312 96.1563 4.1621 97.3633 3.4004 98.3367 2.893 100.9446 2.2039L109.9372 28.1296H102.8523C103.5916 27.2594 104.2146 26.4254 104.2146 25.2289 104.2146 24.5761 104.0587 23.851 103.7866 22.9445L99.8158 10.1812 95.3391 24.4312C94.7163 26.3891 94.7163 27.1868 95.0666 28.1296H86.1908C87.3196 27.0782 88.0594 25.374 88.0594 24.1773 88.0594 23.4159 87.8258 22.5819 87.6314 21.8205L84.4393 10.1812 79.2618 28.1296ZM114.1801 28.1296C115.348 27.3682 115.6983 26.7154 115.6983 26.0266 115.6983 25.3015 115.5424 24.6849 115.3091 24.105L109.0414 7.2079C108.3022 5.2498 107.6012 4.1984 106.1218 2.7479H114.3748C113.129 3.5819 113.0125 4.5609 113.0125 5.0323 113.0125 5.7212 113.207 6.2651 113.4017 6.8091L114.764 10.4349H122.9389L124.3015 6.8814C124.4183 6.6277 124.6516 5.6849 124.6516 5.3586 124.6516 4.307 124.0679 3.3282 122.9389 2.7479H135.3569C134.6564 3.1467 133.2938 4.1621 132.126 7.2079L124.0679 28.1296ZM115.9707 14.061 118.8516 21.748 121.6542 14.061ZM152.7191 28.2747C152.4073 28.1659 152.1349 28.1296 151.7457 28.1296H133.4103C133.0211 28.1296 132.7487 28.1659 132.4372 28.2747L130.9192 22.3282C132.0868 23.3796 133.5274 23.9961 135.4348 23.9961H138.043V6.7003C138.043 5.2135 137.8094 3.7633 136.408 2.7479H147.0745C145.673 3.7633 145.4391 5.2135 145.4391 6.7003V23.9961H148.0476C149.1763 23.9961 150.8114 23.9236 151.3562 22.5819ZM152.174 28.1296C153.5754 27.1145 153.809 25.664 153.809 24.1773V6.7003C153.809 5.2135 153.5754 3.7633 152.174 2.7479H170.1198L171.6769 8.2593C170.6258 7.2442 169.069 6.374 167.2778 6.374H164.1637C161.5558 6.374 161.2054 6.7003 161.2054 7.4616V14.5324H164.0857C164.9035 14.5324 165.9543 14.351 166.8498 13.227V18.1582H161.2054V24.5038H164.7867C165.721 24.5038 167.2004 24.3224 168.2121 22.8719V28.2747C167.9009 28.1659 167.6285 28.1296 167.2393 28.1296ZM172.1441 28.1296C173.5455 27.1145 173.7794 25.664 173.7794 24.1773V6.7003C173.7794 5.2135 173.5455 3.7633 172.1441 2.7479H182.8106C181.4091 3.7633 181.1755 5.2135 181.1755 6.7003V13.6984L184.5232 7.3528C186.1583 4.2707 187.5988 2.3128 191.4914 2.4942L197.1748 2.7479C195.5786 4.017 192.9317 7.7879 192.5036 8.477L188.1825 15.2212C191.2578 16.164 193.36 18.4847 193.36 21.4943 193.36 25.3015 189.9343 28.1296 185.3796 28.1296ZM181.1755 24.5038H181.8763C183.5498 24.5038 185.7691 23.3433 185.7691 20.6603 185.7691 18.4847 184.2117 15.9826 181.1755 15.5112Z"/>
<path transform="matrix(1,0,0,-1,1,756.8886)" d="M444.3009 177.9582C455.3833 168.7839 458.0929 160.2961 460.3096 152.9544L490.3543 57.7573C492.571 50.4173 494.5399 37.3425 510.0557 26.7905 519.169 20.5965 531.2361 16.4667 541.8255 13.9433L570.6386 111.6638 588.1232 56.3817C594.7744 35.5059 595.5131 34.3602 608.3175 26.3316 615.9532 21.513 622.1115 18.303 638.6097 13.9433L695.5002 177.9582H650.6787C655.3556 172.4528 659.2972 167.1769 659.2972 159.6076 659.2972 155.4775 658.3107 150.8902 656.5893 145.1554L631.4689 64.4105 603.1474 154.561C599.2075 166.9473 599.2075 171.9938 601.4239 177.9582H545.2724C552.4132 171.307 557.0938 160.5257 557.0938 152.9544 557.0938 148.1374 555.6161 142.8616 554.3858 138.045L534.1915 64.4105 501.4369 177.9582ZM722.3423 177.9582C729.7308 173.1416 731.9472 169.0115 731.9472 164.6538 731.9472 160.0665 730.9607 156.166 729.485 152.4971L689.8334 45.6004C685.1565 33.2124 680.7217 26.5612 671.3626 17.3849H723.5742C715.6928 22.6607 714.9557 28.8547 714.9557 31.837 714.9557 36.1947 716.186 39.636 717.4179 43.0773L726.0364 66.0155H777.7534L786.3738 43.5348C787.1125 41.9295 788.5885 35.9651 788.5885 33.9009 788.5885 27.248 784.8961 21.0557 777.7534 17.3849H856.3139C851.8827 19.908 843.2623 26.3316 835.8741 45.6004L784.8961 177.9582ZM733.6706 88.9551 751.8957 137.5858 769.6261 88.9551ZM966.1533 178.8763C964.1806 178.1878 962.4574 177.9582 959.9953 177.9582H843.9993C841.5371 177.9582 839.814 178.1878 837.843 178.8763L828.2401 141.2566C835.6266 147.9081 844.74 151.8083 856.8071 151.8083H873.3073V42.3887C873.3073 32.9828 871.8296 23.8085 862.9637 17.3849H930.4435C921.5773 23.8085 920.0979 32.9828 920.0979 42.3887V151.8083H936.5998C943.7409 151.8083 954.0845 151.3494 957.5311 142.8616ZM962.7049 177.9582C971.5708 171.5366 973.0485 162.3603 973.0485 152.9544V42.3887C973.0485 32.9828 971.5708 23.8085 962.7049 17.3849H1076.2365L1086.0872 52.2519C1079.4376 45.83 1069.5889 40.3245 1058.257 40.3245H1038.5558C1022.0576 40.3245 1019.8409 42.3887 1019.8409 47.2056V91.9375H1038.0626C1043.2363 91.9375 1049.8842 90.7897 1055.5492 83.6793V114.8754H1019.8409V155.0203H1042.4976C1048.4082 155.0203 1057.7673 153.8725 1064.1677 144.6962V178.8763C1062.1987 178.1878 1060.4752 177.9582 1058.0131 177.9582ZM1089.0425 177.9582C1097.9085 171.5366 1099.3881 162.3603 1099.3881 152.9544V42.3887C1099.3881 32.9828 1097.9085 23.8085 1089.0425 17.3849H1156.5225C1147.6565 23.8085 1146.1788 32.9828 1146.1788 42.3887V86.6616L1167.3576 46.5168C1177.7012 27.0184 1186.8148 14.6322 1211.4403 15.7799L1247.3958 17.3849C1237.2979 25.4134 1220.5519 49.2695 1217.844 53.6292L1190.5072 96.2952C1209.9627 102.2596 1223.2616 116.9413 1223.2616 135.9808 1223.2616 160.0665 1201.5896 177.9582 1172.7752 177.9582ZM1146.1788 155.0203H1150.6116C1161.1994 155.0203 1175.239 147.6785 1175.239 130.7049 1175.239 116.9413 1165.3866 101.1121 1146.1788 98.1298Z" fill="#005ca9"/>
<path transform="matrix(1,0,0,-1,1,756.8886)" d="M467.8461 634.0924C465.1909 633.6536 462.7293 632.9619 461.2955 631.8573 457.4568 628.9016 453.0379 617.7025 451.2566 613.3657 422.7265 543.8988 393.9695 474.5251 365.3271 405.1043L365.252 404.9218 365.1724 404.7406C341.8846 351.434 308.1178 330.9446 251.3996 331.5022 223.4279 331.7766 195.6404 336.234 173.7269 354.9838 158.3186 368.1663 148.4592 386.0878 139.7945 404.1062L139.5366 404.6437 139.3109 405.1964C96.2362 511.1546 53.1626 617.1143 10.0868 723.0728L0 747.8872 26.7395 749.4599C63.8031 751.6414 110.0015 751.5607 144.4555 736.2207 172.2654 723.8384 187.3145 702.8184 197.1037 674.6355 215.7449 620.9643 233.9906 567.1579 252.345 513.3889 270.4516 564.2212 288.4258 615.1008 306.7251 665.8634 318.0163 697.1851 336.5626 722.5084 366.2734 738.2072 399.3936 755.7075 440.6698 755.8869 477.2517 755.481L496.2314 755.2698V755.1958H506.234C561.3885 755.1958 607.0255 712.6951 612.0388 658.8023H628.6243V755.8886H666.7174C722.4576 755.8886 768.4756 712.4751 772.6586 657.7668H1028.6637C1063.0106 657.7668 1093.6664 641.2839 1113.1166 615.831V755.8886H1142.502C1205.7656 755.8886 1257.459 704.1946 1257.459 640.9307V335.1325H1228.0737C1188.5247 335.1325 1153.4976 355.335 1132.7941 385.9362 1125.3231 357.0528 1098.9965 335.5951 1067.8414 335.5951H884.7465C882.3013 335.5951 879.9089 335.6563 877.5675 335.7765L878.7093 334.7101 829.0956 335.3686C803.1246 335.713 777.1567 336.2907 751.1837 336.4013 685.7291 336.6814 628.6243 377.5414 628.6243 447.0043V547.8585H612.1894V336.4013H565.3913C511.7029 336.4013 467.8461 380.2598 467.8461 433.9474ZM960.3369 450.3402H993.223V467.9016C984.6187 459.7858 973.5656 453.93 960.3369 450.3402ZM844.9931 547.8585H772.9688V461.4701C775.3706 452.6048 783.4164 449.5445 791.9141 448.3786 792.6049 479.8692 797.7623 515.6439 822.4098 535.5643 829.3459 541.1696 836.9597 545.131 844.9931 547.8585" fill="#ffffff" fill-rule="evenodd"/>
<path transform="matrix(1,0,0,-1,1,756.8886)" d="M487.5755 648.9334H593.3027C593.3027 696.8211 554.1214 736.0027 506.2337 736.0027H487.5755ZM497.8834 728.9838C550.7385 730.51 585.4632 702.5043 586.2203 655.3902 576.7866 699.802 541.5049 724.4189 497.8834 728.9838" fill="#e3000f" fill-rule="evenodd"/>
<path transform="matrix(1,0,0,-1,1,756.8886)" d="M1132.3091 736.6961H1142.502C1195.1734 736.6961 1238.2656 693.6015 1238.2656 640.9304V354.325H1228.074C1175.4028 354.325 1132.3091 397.4193 1132.3091 450.0896ZM27.8668 730.3003C71.5901 732.8738 109.8575 730.6135 136.6486 718.6867 158.8652 708.7935 170.3752 692.1972 178.973 668.3386 201.0098 603.9958 223.0452 539.6519 245.082 475.31 248.6305 464.9888 255.3919 465.0525 259.1328 475.31 281.0146 536.6577 302.8975 598.0062 324.7812 659.3547 335.6317 688.8112 351.9167 708.9146 375.2405 721.2379 402.0191 735.3884 435.6791 736.7482 477.0383 736.2887 477.0383 708.8788 477.0383 681.4667 477.0383 654.0565 449.5527 653.3311 443.6348 645.6461 433.5029 620.657 404.8645 551.2473 376.2241 481.8356 347.5848 412.4248 325.0327 360.8011 293.957 350.202 251.5881 350.6944 193.8249 351.1857 176.6095 371.8383 157.0912 412.4248 114.0151 518.3841 70.9421 624.3426 27.8668 730.3003ZM592.9963 567.0513V355.5938H565.3916C522.2962 355.5938 487.0386 390.8526 487.0386 433.9468V639.6092H541.0755 592.9963 647.8174V736.6961H666.7174C714.5983 736.6961 753.7759 697.5196 753.7759 649.6359V647.0969 639.6092 638.5734H820.9437 829.0089 1028.6643C1076.546 638.5734 1115.7225 599.3969 1115.7225 551.5132V402.6719C1115.7225 376.3355 1094.1763 354.7882 1067.8416 354.7882H884.7468C827.1558 354.7882 813.2848 394.1107 811.0933 431.1471 810.4674 469.8921 814.1854 504.0366 834.4743 520.6368 847.5182 530.9765 864.3138 534.198 882.6163 533.9971 920.0857 533.9971 957.5552 533.9971 995.0236 533.9971 998.6621 488.9112 977.0289 466.9075 930.0677 465.3553 920.3247 464.478 916.6224 457.9401 916.7085 447.8477 916.9512 439.3939 921.1476 433.9208 928.9168 431.1471H995.0043C1004.58 431.1471 1012.4161 438.9837 1012.4161 448.5586V540.9326C1012.4161 555.2977 1000.6622 567.0513 986.2971 567.0513H820.9437 810.7489 753.7759V459.3665C757.7297 438.4114 774.644 429.4913 800.0977 428.5009 798.6073 396.2511 809.9541 372.6816 829.3501 354.56 803.3221 354.9053 777.2933 355.2497 751.265 355.5938 696.6848 355.5938 647.8174 388.1203 647.8174 447.0043V567.0513Z" fill="#004e9e" fill-rule="evenodd"/>
<path transform="matrix(1,0,0,-1,1,756.8886)" stroke-width="19.8425" stroke-linecap="butt" stroke-linejoin="round" fill="none" stroke="#ffffff" d="M496.4922 315.5233V286.3049H483.9242V315.5233C483.9242 316.705 483.0525 317.3488 481.6831 317.3488H470.6087C469.1154 317.3488 468.3677 316.705 468.3677 315.5233V244.0899C468.3677 242.8004 469.1154 242.157 470.6087 242.157H481.6831C483.0525 242.157 483.9242 242.8004 483.9242 244.0899V273.9521H496.4922V244.0899C496.4922 242.8004 497.2399 242.157 498.6094 242.157H509.8076C511.1753 242.157 511.9211 242.8004 511.9211 244.0899V315.5233C511.9211 316.705 511.1753 317.3488 509.8076 317.3488H498.6094C497.2399 317.3488 496.4922 316.705 496.4922 315.5233ZM524.7405 295.8656C523.3711 295.8656 522.6236 295.2218 522.6236 293.9326V259.0209C522.6236 248.2804 530.7126 240.8675 542.9086 240.8675 555.1044 240.8675 563.1936 248.2804 563.1936 259.0209V293.9326C563.1936 295.2218 562.4459 295.8656 561.0764 295.8656H550.7478C549.3784 295.8656 548.5088 295.2218 548.5088 293.9326V258.3774C548.5088 255.0475 546.3916 252.7917 542.9086 252.7917 539.2998 252.7917 537.1843 255.0475 537.1843 258.3774V293.9326C537.1843 295.2218 536.4386 295.8656 535.0691 295.8656ZM586.2158 254.0809 605.1297 282.439C606.623 284.5871 606.623 286.7352 606.623 288.2395V291.1391C606.623 294.1478 604.6336 295.8656 601.147 295.8656H572.4026C571.0331 295.8656 570.1632 295.2218 570.1632 294.0403V285.8763C570.1632 284.6945 571.0331 284.0491 572.4026 284.0491H589.6987L570.5371 255.2627C569.1677 253.2203 568.9176 251.2874 568.9176 249.4619V247.2063C568.9176 243.9822 571.0331 242.157 574.5178 242.157H604.3839C605.8772 242.157 606.623 242.8004 606.623 244.0899V252.1463C606.623 253.3277 605.8772 254.0809 604.3839 254.0809ZM616.4555 295.8656C615.0861 295.8656 614.3386 295.2218 614.3386 293.9326V259.0209C614.3386 248.2804 622.4275 240.8675 634.6216 240.8675 646.8174 240.8675 654.9066 248.2804 654.9066 259.0209V293.9326C654.9066 295.2218 654.1591 295.8656 652.7897 295.8656H642.4628C641.0934 295.8656 640.2237 295.2218 640.2237 293.9326V258.3774C640.2237 255.0475 638.1065 252.7917 634.6216 252.7917 631.0148 252.7917 628.8976 255.0475 628.8976 258.3774V293.9326C628.8976 295.2218 628.1518 295.8656 626.7824 295.8656ZM665.8588 242.157H676.1874C677.5551 242.157 678.3009 242.8004 678.3009 244.0899V276.2079C678.3009 281.0421 681.7876 284.0491 687.2635 284.0491H690.3729C691.7423 284.0491 692.6139 284.6945 692.6139 285.8763V294.0403C692.6139 295.3276 691.7423 295.9733 690.3729 295.9733H686.7641C672.7028 295.9733 663.7419 288.1321 663.7419 274.7052V244.0899C663.7419 242.8004 664.4894 242.157 665.8588 242.157ZM721.3601 297.1548C717.6274 297.1548 714.8886 296.2959 712.7714 294.6838V315.5233C712.7714 316.705 712.0256 317.3488 710.6579 317.3488H700.3293C698.9598 317.3488 698.2121 316.705 698.2121 315.5233V259.1286C698.2121 248.2804 706.4254 240.8675 718.7471 240.8675 731.1892 240.8675 739.4023 248.2804 739.4023 259.1286V279.0014C739.4023 289.7422 732.4328 297.1548 721.3601 297.1548ZM724.7191 258.3774C724.7191 255.0475 722.4797 252.8994 718.7471 252.8994 715.0124 252.8994 712.7714 255.0475 712.7714 258.3774V279.6452C712.7714 282.975 715.0124 285.1231 718.7471 285.1231 722.4797 285.1231 724.7191 282.975 724.7191 279.6452ZM766.779 240.9752C779.3487 240.9752 786.6904 247.9575 786.6904 258.3774V279.0014C786.6904 289.7422 778.7251 297.1548 766.531 297.1548 755.081 297.1548 747.3677 290.6028 746.3718 280.9344 746.3718 279.7529 747.1176 279.0014 748.4871 279.0014H758.6918C760.0612 279.0014 760.807 279.3223 760.9311 280.3983 761.0567 283.0825 762.6745 285.1231 766.4071 285.1231 770.0159 285.1231 772.0072 282.975 772.0072 279.7529V275.1338H765.7835C753.7136 275.1338 745.5022 268.3667 745.5022 258.9134 745.5022 248.2804 753.9613 240.9752 766.779 240.9752ZM766.531 253.0069C762.5503 253.0069 760.3092 255.2627 760.3092 258.9134 760.3092 262.0298 762.5503 264.0702 766.6569 264.0702H772.0072V258.2697C772.0072 255.0475 770.1398 253.0069 766.531 253.0069ZM797.1429 242.157H807.4715C808.8392 242.157 809.7126 242.8004 809.7126 244.0899V257.3031C809.7126 260.6329 811.8278 262.781 815.3107 262.781 818.9215 262.781 821.035 260.6329 821.035 257.3031V244.0899C821.035 242.8004 821.7825 242.157 823.1522 242.157H833.6047C834.9741 242.157 835.7199 242.8004 835.7199 244.0899V256.6576C835.7199 261.5995 833.2308 265.788 828.6265 268.797 833.2308 271.804 835.7199 275.9927 835.7199 280.9344V294.0403C835.7199 295.2218 834.9741 295.8656 833.6047 295.8656H823.1522C821.7825 295.8656 821.035 295.2218 821.035 294.0403V280.2906C821.035 276.961 818.9215 274.811 815.3107 274.811 811.8278 274.811 809.7126 276.961 809.7126 280.2906V294.0403C809.7126 295.2218 808.8392 295.8656 807.4715 295.8656H797.1429C795.6493 295.8656 794.9035 295.2218 794.9035 294.0403V280.9344C794.9035 275.9927 797.5168 271.804 802.1194 268.797 797.5168 265.788 794.9035 261.5995 794.9035 256.6576V244.0899C794.9035 242.8004 795.6493 242.157 797.1429 242.157ZM864.714 240.8675C876.9101 240.8675 885.1232 247.6346 885.1232 257.0879 885.1232 274.7052 858.4923 273.0932 858.4923 281.1495 858.4923 283.513 860.6075 285.2308 863.8444 285.2308 867.0793 285.2308 868.8209 283.6205 869.3203 281.2572 869.5684 280.1832 870.1903 279.43 871.5597 279.43H881.8863C883.7555 279.43 884.0035 280.5041 884.0035 281.3647 883.7555 288.3472 878.1537 297.1548 863.7202 297.1548 852.1464 297.1548 843.8091 290.9237 843.8091 281.4724 843.8091 264.2856 870.3142 265.8957 870.3142 257.5185 870.3142 254.9398 868.2007 252.8994 864.3404 252.8994 860.1114 252.8994 858.3681 255.3684 857.8704 258.7 857.4985 259.9875 856.5009 260.4178 855.5054 260.4178H845.1785C843.3094 260.4178 843.0633 259.236 843.0633 258.162 843.3094 249.5696 850.6528 240.8675 864.714 240.8675ZM896.0737 242.157H906.2762C907.7698 242.157 908.5175 242.8004 908.5175 244.0899V279.6452C908.5175 282.975 910.7566 285.1231 914.2415 285.1231 917.852 285.1231 919.9655 282.975 919.9655 279.6452V244.0899C919.9655 242.8004 920.8355 242.157 922.2049 242.157H932.5352C934.0288 242.157 934.7746 242.8004 934.7746 244.0899V278.894C934.7746 289.7422 927.0592 297.1548 915.859 297.1548 913.246 297.1548 910.6328 296.2959 908.5175 295.0067V315.5233C908.5175 316.705 907.7698 317.3488 906.2762 317.3488H896.0737C894.5802 317.3488 893.8344 316.705 893.8344 315.5233V244.0899C893.8344 242.8004 894.5802 242.157 896.0737 242.157ZM972.2319 242.157H982.5605C983.9299 242.157 984.6757 242.8004 984.6757 244.0899V279.6452C984.6757 282.975 986.7929 285.2308 990.4 285.2308 993.8846 285.2308 996.0001 282.975 996.0001 279.6452V244.0899C996.0001 242.8004 996.8717 242.157 998.2392 242.157H1008.5678C1009.9372 242.157 1010.685 242.8004 1010.685 244.0899V279.0014C1010.685 289.7422 1002.5957 297.1548 990.4 297.1548 978.2039 297.1548 970.1147 289.7422 970.1147 279.0014V244.0899C970.1147 242.8004 970.8642 242.157 972.2319 242.157ZM1039.9292 240.9752C1051.5014 240.9752 1059.5906 247.5272 1060.4602 257.3031 1060.4602 258.5925 1059.7144 259.236 1058.3467 259.236H1047.8925C1046.6487 259.236 1045.9013 258.7 1045.6515 257.4108 1045.1554 254.6172 1043.1641 252.8994 1040.0513 252.8994 1036.4426 252.8994 1034.4529 255.0475 1034.4529 258.3774V262.8887H1040.5491C1052.7449 262.8887 1060.96 269.6559 1060.96 279.5377 1060.96 290.065 1052.2471 297.2625 1040.3012 297.0473 1027.9832 297.0473 1019.8939 289.9573 1019.6439 279.43V259.1286C1019.6439 248.1727 1027.8573 240.9752 1039.9292 240.9752ZM1034.4529 274.0598V279.6452C1034.4529 282.975 1036.4426 285.1231 1040.3012 285.1231 1044.0337 285.1231 1046.2752 283.0825 1046.2752 279.2166 1046.2752 275.9927 1044.158 274.0598 1040.5491 274.0598ZM1066.932 315.631 1065.6865 295.2218C1065.6865 293.9326 1066.4323 293.2872 1067.9258 293.2872H1072.904C1074.2717 293.2872 1075.0195 293.8249 1075.2693 295.0067L1079.8737 315.3081C1080.1216 316.4899 1079.252 317.3488 1077.8825 317.3488H1069.1714C1067.802 317.3488 1067.0562 316.705 1066.932 315.631ZM1129.2752 297.1548C1124.1729 297.1548 1119.8184 295.3276 1116.7075 292.4283 1113.5945 295.3276 1109.242 297.1548 1104.138 297.1548 1092.3157 297.1548 1084.4762 289.7422 1084.4762 279.0014V244.0899C1084.4762 242.8004 1085.224 242.157 1086.5934 242.157H1096.6723C1098.1655 242.157 1098.9113 242.8004 1098.9113 244.0899V279.6452C1098.9113 282.975 1100.7788 285.1231 1104.138 285.1231 1107.6226 285.1231 1109.488 282.975 1109.488 279.6452V244.0899C1109.488 242.8004 1110.2357 242.157 1111.6052 242.157H1121.8096C1123.1773 242.157 1123.925 242.8004 1123.925 244.0899V279.6452C1123.925 282.975 1125.7907 285.1231 1129.2752 285.1231 1132.636 285.1231 1134.5034 282.975 1134.5034 279.6452V244.0899C1134.5034 242.8004 1135.2492 242.157 1136.7426 242.157H1146.8214C1148.1908 242.157 1148.9386 242.8004 1148.9386 244.0899V279.0014C1148.9386 289.7422 1141.0991 297.1548 1129.2752 297.1548ZM1178.3047 240.9752C1190.8743 240.9752 1198.2161 247.9575 1198.2161 258.3774V279.0014C1198.2161 289.7422 1190.2507 297.1548 1178.0567 297.1548 1166.6066 297.1548 1158.8933 290.6028 1157.8975 280.9344 1157.8975 279.7529 1158.6433 279.0014 1160.0127 279.0014H1170.2174C1171.5868 279.0014 1172.3327 279.3223 1172.4568 280.3983 1172.5824 283.0825 1174.2001 285.1231 1177.9328 285.1231 1181.5415 285.1231 1183.533 282.975 1183.533 279.7529V275.1338H1177.3091C1165.2393 275.1338 1157.0278 268.3667 1157.0278 258.9134 1157.0278 248.2804 1165.487 240.9752 1178.3047 240.9752ZM1178.0567 253.0069C1174.0759 253.0069 1171.835 255.2627 1171.835 258.9134 1171.835 262.0298 1174.0759 264.0702 1178.1825 264.0702H1183.533V258.2697C1183.533 255.0475 1181.6654 253.0069 1178.0567 253.0069ZM1235.7973 253.6506H1234.5537C1228.8297 253.6506 1226.0925 256.229 1226.0925 261.5995V284.4794H1234.4279C1235.7973 284.4794 1236.545 285.1231 1236.545 286.3049V294.0403C1236.545 295.2218 1235.7973 295.8656 1234.4279 295.8656H1226.0925V309.7227C1226.0925 310.9042 1225.3449 311.548 1223.9754 311.548H1213.6467C1212.279 311.548 1211.5332 310.9042 1211.5332 309.7227V295.8656H1205.3095C1203.9401 295.8656 1203.1943 295.2218 1203.1943 294.0403V286.3049C1203.1943 285.1231 1203.9401 284.4794 1205.3095 284.4794H1211.5332V261.8147C1211.5332 249.4619 1219.8688 241.7264 1233.434 241.7264H1235.7973C1237.1669 241.7264 1237.9144 242.3721 1237.9144 243.5536V251.8254C1237.9144 253.0069 1237.1669 253.6506 1235.7973 253.6506Z"/>
<path transform="matrix(1,0,0,-1,1,756.8886)" d="M496.4922 315.5233V286.3049H483.9242V315.5233C483.9242 316.705 483.0525 317.3488 481.6831 317.3488H470.6087C469.1154 317.3488 468.3677 316.705 468.3677 315.5233V244.0899C468.3677 242.8004 469.1154 242.157 470.6087 242.157H481.6831C483.0525 242.157 483.9242 242.8004 483.9242 244.0899V273.9521H496.4922V244.0899C496.4922 242.8004 497.2399 242.157 498.6094 242.157H509.8076C511.1753 242.157 511.9211 242.8004 511.9211 244.0899V315.5233C511.9211 316.705 511.1753 317.3488 509.8076 317.3488H498.6094C497.2399 317.3488 496.4922 316.705 496.4922 315.5233ZM524.7405 295.8656C523.3711 295.8656 522.6236 295.2218 522.6236 293.9326V259.0209C522.6236 248.2804 530.7126 240.8675 542.9086 240.8675 555.1044 240.8675 563.1936 248.2804 563.1936 259.0209V293.9326C563.1936 295.2218 562.4459 295.8656 561.0764 295.8656H550.7478C549.3784 295.8656 548.5088 295.2218 548.5088 293.9326V258.3774C548.5088 255.0475 546.3916 252.7917 542.9086 252.7917 539.2998 252.7917 537.1843 255.0475 537.1843 258.3774V293.9326C537.1843 295.2218 536.4386 295.8656 535.0691 295.8656ZM586.2158 254.0809 605.1297 282.439C606.623 284.5871 606.623 286.7352 606.623 288.2395V291.1391C606.623 294.1478 604.6336 295.8656 601.147 295.8656H572.4026C571.0331 295.8656 570.1632 295.2218 570.1632 294.0403V285.8763C570.1632 284.6945 571.0331 284.0491 572.4026 284.0491H589.6987L570.5371 255.2627C569.1677 253.2203 568.9176 251.2874 568.9176 249.4619V247.2063C568.9176 243.9822 571.0331 242.157 574.5178 242.157H604.3839C605.8772 242.157 606.623 242.8004 606.623 244.0899V252.1463C606.623 253.3277 605.8772 254.0809 604.3839 254.0809ZM616.4555 295.8656C615.0861 295.8656 614.3386 295.2218 614.3386 293.9326V259.0209C614.3386 248.2804 622.4275 240.8675 634.6216 240.8675 646.8174 240.8675 654.9066 248.2804 654.9066 259.0209V293.9326C654.9066 295.2218 654.1591 295.8656 652.7897 295.8656H642.4628C641.0934 295.8656 640.2237 295.2218 640.2237 293.9326V258.3774C640.2237 255.0475 638.1065 252.7917 634.6216 252.7917 631.0148 252.7917 628.8976 255.0475 628.8976 258.3774V293.9326C628.8976 295.2218 628.1518 295.8656 626.7824 295.8656ZM665.8588 242.157H676.1874C677.5551 242.157 678.3009 242.8004 678.3009 244.0899V276.2079C678.3009 281.0421 681.7876 284.0491 687.2635 284.0491H690.3729C691.7423 284.0491 692.6139 284.6945 692.6139 285.8763V294.0403C692.6139 295.3276 691.7423 295.9733 690.3729 295.9733H686.7641C672.7028 295.9733 663.7419 288.1321 663.7419 274.7052V244.0899C663.7419 242.8004 664.4894 242.157 665.8588 242.157ZM721.3601 297.1548C717.6274 297.1548 714.8886 296.2959 712.7714 294.6838V315.5233C712.7714 316.705 712.0256 317.3488 710.6579 317.3488H700.3293C698.9598 317.3488 698.2121 316.705 698.2121 315.5233V259.1286C698.2121 248.2804 706.4254 240.8675 718.7471 240.8675 731.1892 240.8675 739.4023 248.2804 739.4023 259.1286V279.0014C739.4023 289.7422 732.4328 297.1548 721.3601 297.1548ZM724.7191 258.3774C724.7191 255.0475 722.4797 252.8994 718.7471 252.8994 715.0124 252.8994 712.7714 255.0475 712.7714 258.3774V279.6452C712.7714 282.975 715.0124 285.1231 718.7471 285.1231 722.4797 285.1231 724.7191 282.975 724.7191 279.6452ZM766.779 240.9752C779.3487 240.9752 786.6904 247.9575 786.6904 258.3774V279.0014C786.6904 289.7422 778.7251 297.1548 766.531 297.1548 755.081 297.1548 747.3677 290.6028 746.3718 280.9344 746.3718 279.7529 747.1176 279.0014 748.4871 279.0014H758.6918C760.0612 279.0014 760.807 279.3223 760.9311 280.3983 761.0567 283.0825 762.6745 285.1231 766.4071 285.1231 770.0159 285.1231 772.0072 282.975 772.0072 279.7529V275.1338H765.7835C753.7136 275.1338 745.5022 268.3667 745.5022 258.9134 745.5022 248.2804 753.9613 240.9752 766.779 240.9752ZM766.531 253.0069C762.5503 253.0069 760.3092 255.2627 760.3092 258.9134 760.3092 262.0298 762.5503 264.0702 766.6569 264.0702H772.0072V258.2697C772.0072 255.0475 770.1398 253.0069 766.531 253.0069ZM797.1429 242.157H807.4715C808.8392 242.157 809.7126 242.8004 809.7126 244.0899V257.3031C809.7126 260.6329 811.8278 262.781 815.3107 262.781 818.9215 262.781 821.035 260.6329 821.035 257.3031V244.0899C821.035 242.8004 821.7825 242.157 823.1522 242.157H833.6047C834.9741 242.157 835.7199 242.8004 835.7199 244.0899V256.6576C835.7199 261.5995 833.2308 265.788 828.6265 268.797 833.2308 271.804 835.7199 275.9927 835.7199 280.9344V294.0403C835.7199 295.2218 834.9741 295.8656 833.6047 295.8656H823.1522C821.7825 295.8656 821.035 295.2218 821.035 294.0403V280.2906C821.035 276.961 818.9215 274.811 815.3107 274.811 811.8278 274.811 809.7126 276.961 809.7126 280.2906V294.0403C809.7126 295.2218 808.8392 295.8656 807.4715 295.8656H797.1429C795.6493 295.8656 794.9035 295.2218 794.9035 294.0403V280.9344C794.9035 275.9927 797.5168 271.804 802.1194 268.797 797.5168 265.788 794.9035 261.5995 794.9035 256.6576V244.0899C794.9035 242.8004 795.6493 242.157 797.1429 242.157ZM864.714 240.8675C876.9101 240.8675 885.1232 247.6346 885.1232 257.0879 885.1232 274.7052 858.4923 273.0932 858.4923 281.1495 858.4923 283.513 860.6075 285.2308 863.8444 285.2308 867.0793 285.2308 868.8209 283.6205 869.3203 281.2572 869.5684 280.1832 870.1903 279.43 871.5597 279.43H881.8863C883.7555 279.43 884.0035 280.5041 884.0035 281.3647 883.7555 288.3472 878.1537 297.1548 863.7202 297.1548 852.1464 297.1548 843.8091 290.9237 843.8091 281.4724 843.8091 264.2856 870.3142 265.8957 870.3142 257.5185 870.3142 254.9398 868.2007 252.8994 864.3404 252.8994 860.1114 252.8994 858.3681 255.3684 857.8704 258.7 857.4985 259.9875 856.5009 260.4178 855.5054 260.4178H845.1785C843.3094 260.4178 843.0633 259.236 843.0633 258.162 843.3094 249.5696 850.6528 240.8675 864.714 240.8675ZM896.0737 242.157H906.2762C907.7698 242.157 908.5175 242.8004 908.5175 244.0899V279.6452C908.5175 282.975 910.7566 285.1231 914.2415 285.1231 917.852 285.1231 919.9655 282.975 919.9655 279.6452V244.0899C919.9655 242.8004 920.8355 242.157 922.2049 242.157H932.5352C934.0288 242.157 934.7746 242.8004 934.7746 244.0899V278.894C934.7746 289.7422 927.0592 297.1548 915.859 297.1548 913.246 297.1548 910.6328 296.2959 908.5175 295.0067V315.5233C908.5175 316.705 907.7698 317.3488 906.2762 317.3488H896.0737C894.5802 317.3488 893.8344 316.705 893.8344 315.5233V244.0899C893.8344 242.8004 894.5802 242.157 896.0737 242.157ZM972.2319 242.157H982.5605C983.9299 242.157 984.6757 242.8004 984.6757 244.0899V279.6452C984.6757 282.975 986.7929 285.2308 990.4 285.2308 993.8846 285.2308 996.0001 282.975 996.0001 279.6452V244.0899C996.0001 242.8004 996.8717 242.157 998.2392 242.157H1008.5678C1009.9372 242.157 1010.685 242.8004 1010.685 244.0899V279.0014C1010.685 289.7422 1002.5957 297.1548 990.4 297.1548 978.2039 297.1548 970.1147 289.7422 970.1147 279.0014V244.0899C970.1147 242.8004 970.8642 242.157 972.2319 242.157ZM1039.9292 240.9752C1051.5014 240.9752 1059.5906 247.5272 1060.4602 257.3031 1060.4602 258.5925 1059.7144 259.236 1058.3467 259.236H1047.8925C1046.6487 259.236 1045.9013 258.7 1045.6515 257.4108 1045.1554 254.6172 1043.1641 252.8994 1040.0513 252.8994 1036.4426 252.8994 1034.4529 255.0475 1034.4529 258.3774V262.8887H1040.5491C1052.7449 262.8887 1060.96 269.6559 1060.96 279.5377 1060.96 290.065 1052.2471 297.2625 1040.3012 297.0473 1027.9832 297.0473 1019.8939 289.9573 1019.6439 279.43V259.1286C1019.6439 248.1727 1027.8573 240.9752 1039.9292 240.9752ZM1034.4529 274.0598V279.6452C1034.4529 282.975 1036.4426 285.1231 1040.3012 285.1231 1044.0337 285.1231 1046.2752 283.0825 1046.2752 279.2166 1046.2752 275.9927 1044.158 274.0598 1040.5491 274.0598ZM1066.932 315.631 1065.6865 295.2218C1065.6865 293.9326 1066.4323 293.2872 1067.9258 293.2872H1072.904C1074.2717 293.2872 1075.0195 293.8249 1075.2693 295.0067L1079.8737 315.3081C1080.1216 316.4899 1079.252 317.3488 1077.8825 317.3488H1069.1714C1067.802 317.3488 1067.0562 316.705 1066.932 315.631ZM1129.2752 297.1548C1124.1729 297.1548 1119.8184 295.3276 1116.7075 292.4283 1113.5945 295.3276 1109.242 297.1548 1104.138 297.1548 1092.3157 297.1548 1084.4762 289.7422 1084.4762 279.0014V244.0899C1084.4762 242.8004 1085.224 242.157 1086.5934 242.157H1096.6723C1098.1655 242.157 1098.9113 242.8004 1098.9113 244.0899V279.6452C1098.9113 282.975 1100.7788 285.1231 1104.138 285.1231 1107.6226 285.1231 1109.488 282.975 1109.488 279.6452V244.0899C1109.488 242.8004 1110.2357 242.157 1111.6052 242.157H1121.8096C1123.1773 242.157 1123.925 242.8004 1123.925 244.0899V279.6452C1123.925 282.975 1125.7907 285.1231 1129.2752 285.1231 1132.636 285.1231 1134.5034 282.975 1134.5034 279.6452V244.0899C1134.5034 242.8004 1135.2492 242.157 1136.7426 242.157H1146.8214C1148.1908 242.157 1148.9386 242.8004 1148.9386 244.0899V279.0014C1148.9386 289.7422 1141.0991 297.1548 1129.2752 297.1548ZM1178.3047 240.9752C1190.8743 240.9752 1198.2161 247.9575 1198.2161 258.3774V279.0014C1198.2161 289.7422 1190.2507 297.1548 1178.0567 297.1548 1166.6066 297.1548 1158.8933 290.6028 1157.8975 280.9344 1157.8975 279.7529 1158.6433 279.0014 1160.0127 279.0014H1170.2174C1171.5868 279.0014 1172.3327 279.3223 1172.4568 280.3983 1172.5824 283.0825 1174.2001 285.1231 1177.9328 285.1231 1181.5415 285.1231 1183.533 282.975 1183.533 279.7529V275.1338H1177.3091C1165.2393 275.1338 1157.0278 268.3667 1157.0278 258.9134 1157.0278 248.2804 1165.487 240.9752 1178.3047 240.9752ZM1178.0567 253.0069C1174.0759 253.0069 1171.835 255.2627 1171.835 258.9134 1171.835 262.0298 1174.0759 264.0702 1178.1825 264.0702H1183.533V258.2697C1183.533 255.0475 1181.6654 253.0069 1178.0567 253.0069ZM1235.7973 253.6506H1234.5537C1228.8297 253.6506 1226.0925 256.229 1226.0925 261.5995V284.4794H1234.4279C1235.7973 284.4794 1236.545 285.1231 1236.545 286.3049V294.0403C1236.545 295.2218 1235.7973 295.8656 1234.4279 295.8656H1226.0925V309.7227C1226.0925 310.9042 1225.3449 311.548 1223.9754 311.548H1213.6467C1212.279 311.548 1211.5332 310.9042 1211.5332 309.7227V295.8656H1205.3095C1203.9401 295.8656 1203.1943 295.2218 1203.1943 294.0403V286.3049C1203.1943 285.1231 1203.9401 284.4794 1205.3095 284.4794H1211.5332V261.8147C1211.5332 249.4619 1219.8688 241.7264 1233.434 241.7264H1235.7973C1237.1669 241.7264 1237.9144 242.3721 1237.9144 243.5536V251.8254C1237.9144 253.0069 1237.1669 253.6506 1235.7973 253.6506" fill="#0ba536"/>
<path transform="matrix(1,0,0,-1,1,756.8886)" d="M1301.8377 736.5634C1310.5726 736.5634 1318.4819 733.0221 1324.2064 727.2975 1329.931 721.5729 1333.4723 713.6637 1333.4723 704.9288 1333.4723 696.1938 1329.931 688.2846 1324.2064 682.56 1318.4819 676.8354 1310.5726 673.2941 1301.8377 673.2941 1293.1027 673.2941 1285.1935 676.8354 1279.4689 682.56 1273.7443 688.2846 1270.203 696.1938 1270.203 704.9288 1270.203 713.6637 1273.7443 721.5729 1279.4689 727.2975 1285.1935 733.0221 1293.1027 736.5634 1301.8377 736.5634ZM1320.1983 723.2893C1315.4998 727.9877 1309.0082 730.8941 1301.8377 730.8941 1294.6671 730.8941 1288.1755 727.9877 1283.477 723.2893 1278.7787 718.5909 1275.8723 712.0993 1275.8723 704.9288 1275.8723 697.7582 1278.7787 691.2666 1283.477 686.5682 1288.1755 681.8698 1294.6671 678.9634 1301.8377 678.9634 1309.0082 678.9634 1315.4998 681.8698 1320.1983 686.5682 1324.8967 691.2666 1327.803 697.7582 1327.803 704.9288 1327.803 712.0993 1324.8967 718.5909 1320.1983 723.2893" fill="#004e9e"/>
<path transform="matrix(1,0,0,-1,1,756.8886)" d="M1287.3753 688.9904V721.3173H1301.123C1304.5768 721.3173 1307.0903 721.0233 1308.6553 720.4442 1310.2277 719.8648 1311.4772 718.8338 1312.418 717.3513 1313.3585 715.8614 1313.8325 714.1686 1313.8325 712.2572 1313.8325 709.8267 1313.1249 707.8249 1311.7028 706.2449 1310.2807 704.6649 1308.1586 703.6713 1305.3294 703.2574 1306.7365 702.4374 1307.8953 701.534 1308.8056 700.5487 1309.7239 699.5628 1310.9579 697.8093 1312.5078 695.2961L1316.4508 688.9904H1308.6476L1303.9673 696.0487C1302.2892 698.5542 1301.1381 700.1348 1300.5136 700.789 1299.8965 701.4365 1299.2417 701.8883 1298.5496 702.1287 1297.8493 702.3696 1296.7509 702.4898 1295.246 702.4898H1293.9214V688.9904ZM1293.9214 707.6367H1298.7527C1301.883 707.6367 1303.8318 707.7722 1304.6143 708.0355 1305.3895 708.2989 1306.0066 708.7581 1306.4428 709.4055 1306.887 710.0524 1307.105 710.8651 1307.105 711.8359 1307.105 712.927 1306.8119 713.8001 1306.2322 714.4773 1305.6531 715.1465 1304.8328 715.5683 1303.779 715.7409 1303.2448 715.8161 1301.6574 715.854 1299.0161 715.854H1293.9214Z" fill="#004e9e"/>
</g>
<g id="layer_1" data-name="">
</g>
<g id="layer_1" data-name="">
</g>
</svg>
