<?xml version="1.0" standalone="no"?>
<!DOCTYPE svg PUBLIC "-//W3C//DTD SVG 20010904//EN"
 "http://www.w3.org/TR/2001/REC-SVG-20010904/DTD/svg10.dtd">
<svg version="1.0" xmlns="http://www.w3.org/2000/svg"
 width="225.000000pt" height="225.000000pt" viewBox="0 0 225.000000 225.000000"
 preserveAspectRatio="xMidYMid meet">

<g transform="translate(0.000000,225.000000) scale(0.100000,-0.100000)"
fill="#000000" stroke="none">
<path d="M1095 2230 c3 -5 19 -10 35 -10 16 0 32 5 35 10 4 6 -10 10 -35 10
-25 0 -39 -4 -35 -10z"/>
<path d="M1003 2223 c9 -2 23 -2 30 0 6 3 -1 5 -18 5 -16 0 -22 -2 -12 -5z"/>
<path d="M1213 2223 c9 -2 23 -2 30 0 6 3 -1 5 -18 5 -16 0 -22 -2 -12 -5z"/>
<path d="M900 2213 c-30 -12 -35 -43 -7 -43 8 0 8 3 -2 9 -15 10 -5 18 37 31
20 6 22 8 7 8 -11 0 -27 -2 -35 -5z"/>
<path d="M1310 2211 c14 -4 43 -11 65 -14 l40 -6 -40 14 c-22 7 -51 13 -65 13
l-25 0 25 -7z"/>
<path d="M1208 2203 c6 -2 18 -2 25 0 6 3 1 5 -13 5 -14 0 -19 -2 -12 -5z"/>
<path d="M838 2193 c7 -3 16 -2 19 1 4 3 -2 6 -13 5 -11 0 -14 -3 -6 -6z"/>
<path d="M797 2179 c7 -7 15 -10 18 -7 3 3 -2 9 -12 12 -14 6 -15 5 -6 -5z"/>
<path d="M1008 2183 c6 -2 18 -2 25 0 6 3 1 5 -13 5 -14 0 -19 -2 -12 -5z"/>
<path d="M1435 2180 c-3 -5 1 -10 9 -10 9 0 16 5 16 10 0 6 -4 10 -9 10 -6 0
-13 -4 -16 -10z"/>
<path d="M1288 2173 c7 -3 16 -2 19 1 4 3 -2 6 -13 5 -11 0 -14 -3 -6 -6z"/>
<path d="M702 2151 c-11 -7 -11 -9 0 -14 9 -3 15 1 15 9 0 8 -1 14 -1 14 -1 0
-7 -4 -14 -9z"/>
<path d="M1534 2145 c11 -8 25 -15 30 -15 6 0 2 7 -8 15 -11 8 -25 15 -30 15
-6 0 -2 -7 8 -15z"/>
<path d="M641 2129 c-13 -5 -21 -12 -18 -15 3 -3 18 1 34 10 31 17 21 20 -16
5z"/>
<path d="M1595 2120 c27 -12 43 -12 25 0 -8 5 -22 9 -30 9 -10 0 -8 -3 5 -9z"/>
<path d="M590 2100 c-12 -7 -10 -9 7 -7 12 0 19 5 17 9 -6 10 -6 10 -24 -2z"/>
<path d="M1530 2100 c-9 -6 -10 -10 -3 -10 6 0 15 5 18 10 8 12 4 12 -15 0z"/>
<path d="M658 2093 c7 -3 16 -2 19 1 4 3 -2 6 -13 5 -11 0 -14 -3 -6 -6z"/>
<path d="M527 2064 c-22 -12 -26 -18 -17 -29 8 -10 8 -14 -2 -17 -7 -3 2 -5
20 -5 17 0 32 4 32 9 0 5 -4 7 -9 4 -4 -3 -17 1 -27 9 -10 8 -14 15 -8 15 5 0
19 7 30 15 25 19 17 18 -19 -1z"/>
<path d="M1684 2068 c-4 -7 -4 -10 1 -6 4 4 16 3 27 -3 16 -9 17 -13 6 -27
-12 -15 -11 -16 4 -3 20 15 16 26 -12 41 -13 7 -21 7 -26 -2z"/>
<path d="M454 2008 l-29 -33 33 29 c17 17 32 31 32 33 0 8 -8 1 -36 -29z"/>
<path d="M1746 2032 c-3 -5 1 -15 8 -21 11 -10 14 -9 12 3 -3 21 -13 29 -20
18z"/>
<path d="M405 1970 c-3 -5 -1 -10 4 -10 6 0 11 5 11 10 0 6 -2 10 -4 10 -3 0
-8 -4 -11 -10z"/>
<path d="M1820 1965 c-11 -13 -10 -14 4 -9 9 3 16 10 16 15 0 13 -6 11 -20 -6z"/>
<path d="M460 1950 c-8 -5 -12 -12 -9 -15 4 -3 12 1 19 10 14 17 11 19 -10 5z"/>
<path d="M1830 1942 c0 -5 9 -18 19 -29 11 -12 17 -24 13 -29 -4 -4 -2 -4 5 0
13 7 7 36 -8 36 -5 0 -9 7 -9 15 0 8 -4 15 -10 15 -5 0 -10 -4 -10 -8z"/>
<path d="M1890 1918 c18 -21 29 -38 23 -38 -8 0 -8 -7 0 -24 7 -14 17 -22 25
-18 12 4 11 7 -2 14 -9 5 -16 14 -16 20 0 7 5 6 15 -2 33 -27 12 -2 -32 40
-38 35 -41 37 -13 8z"/>
<path d="M339 1908 c-12 -23 -12 -23 10 -4 23 21 26 26 11 26 -5 0 -15 -10
-21 -22z"/>
<path d="M296 1866 c-10 -15 -34 -46 -53 -69 -28 -33 -25 -31 13 8 27 27 52
50 57 50 8 0 10 10 5 27 -2 6 -12 -2 -22 -16z"/>
<path d="M380 1872 c0 -6 -8 -13 -17 -15 -16 -4 -16 -5 -1 -6 18 -1 34 16 24
26 -3 4 -6 1 -6 -5z"/>
<path d="M1850 1856 c4 -4 16 -4 26 2 16 9 14 10 -8 9 -15 -1 -23 -6 -18 -11z"/>
<path d="M1960 1843 c0 -7 5 -15 10 -18 6 -3 10 -11 10 -17 0 -7 -5 -6 -15 2
-17 14 -31 7 -38 -19 -3 -13 -1 -18 9 -14 7 2 10 12 6 21 -5 15 -4 15 12 3 26
-22 43 1 22 30 -9 13 -16 18 -16 12z"/>
<path d="M280 1792 c0 -12 19 -26 26 -19 2 2 -2 10 -11 17 -9 8 -15 8 -15 2z"/>
<path d="M2000 1791 c0 -5 5 -13 10 -16 6 -3 10 -2 10 4 0 5 -4 13 -10 16 -5
3 -10 2 -10 -4z"/>
<path d="M190 1730 c-8 -16 -8 -20 2 -18 7 2 12 -3 11 -9 -2 -7 3 -13 10 -13
7 0 14 10 14 22 2 16 0 19 -6 9 -6 -9 -11 -10 -15 -2 -4 6 -4 16 -1 21 3 6 4
10 1 10 -3 0 -10 -9 -16 -20z"/>
<path d="M880 1679 c0 -5 5 -7 10 -4 6 3 10 8 10 11 0 2 -4 4 -10 4 -5 0 -10
-5 -10 -11z"/>
<path d="M1120 1670 c0 -13 11 -13 30 0 12 8 11 10 -7 10 -13 0 -23 -4 -23
-10z"/>
<path d="M1210 1670 c20 -13 43 -13 35 0 -3 6 -16 10 -28 10 -18 0 -19 -2 -7
-10z"/>
<path d="M2083 1651 c0 -20 4 -28 13 -24 11 4 11 10 2 26 -6 12 -12 23 -13 25
-1 1 -2 -11 -2 -27z"/>
<path d="M147 1657 c-3 -8 -2 -20 3 -26 5 -9 8 -4 8 13 0 29 -3 32 -11 13z"/>
<path d="M968 1663 c6 -2 18 -2 25 0 6 3 1 5 -13 5 -14 0 -19 -2 -12 -5z"/>
<path d="M1338 1663 c7 -3 16 -2 19 1 4 3 -2 6 -13 5 -11 0 -14 -3 -6 -6z"/>
<path d="M1083 1643 c-5 -2 -35 -6 -68 -11 -40 -5 -2 -7 122 -7 100 1 185 3
187 6 3 3 -8 4 -24 1 -16 -2 -38 -1 -47 3 -18 6 -154 13 -170 8z"/>
<path d="M127 1623 c-4 -3 -7 -11 -7 -17 0 -6 5 -5 12 2 6 6 9 14 7 17 -3 3
-9 2 -12 -2z"/>
<path d="M1356 1611 c9 -9 83 -27 74 -18 -3 3 -23 10 -44 16 -22 5 -35 6 -30
2z"/>
<path d="M2110 1616 c0 -10 40 -86 45 -86 2 0 -4 18 -14 40 -18 40 -31 60 -31
46z"/>
<path d="M520 1598 c0 -11 28 -10 35 1 3 6 -4 9 -15 8 -11 -1 -20 -5 -20 -9z"/>
<path d="M735 1594 c11 -9 13 -13 4 -16 -7 -2 -13 -11 -15 -20 -1 -11 3 -15
12 -11 8 3 12 9 9 13 -3 5 3 13 12 19 14 8 15 10 3 11 -13 0 -13 2 -1 9 10 7
6 9 -13 8 -22 -2 -24 -4 -11 -13z"/>
<path d="M796 1601 c-19 -7 -18 -8 4 -14 13 -3 26 -4 29 -2 2 3 -1 5 -8 5 -7
0 -9 5 -6 10 7 11 7 11 -19 1z"/>
<path d="M850 1600 c-18 -12 -2 -12 25 0 13 6 15 9 5 9 -8 0 -22 -4 -30 -9z"/>
<path d="M1453 1599 c9 -6 15 -15 11 -21 -4 -5 4 -5 17 2 34 18 38 24 10 15
-16 -5 -21 -4 -17 4 5 7 -2 11 -16 11 -21 -1 -21 -2 -5 -11z"/>
<path d="M1520 1606 c0 -2 9 -6 20 -9 11 -3 18 -1 14 4 -5 9 -34 13 -34 5z"/>
<path d="M465 1590 c26 -11 45 -12 45 -2 0 4 -15 8 -33 9 -26 1 -28 0 -12 -7z"/>
<path d="M1745 1590 c3 -5 14 -10 23 -10 15 0 15 2 2 10 -20 13 -33 13 -25 0z"/>
<path d="M1790 1587 c0 -8 12 -19 28 -26 l27 -11 -22 19 c-12 10 -19 21 -16
25 4 3 1 6 -5 6 -7 0 -12 -6 -12 -13z"/>
<path d="M1492 1571 c-7 -4 0 -12 22 -22 27 -12 33 -13 29 -2 -3 7 0 13 7 13
6 0 8 5 4 11 -4 8 -9 7 -14 -2 -6 -9 -12 -10 -22 -1 -8 6 -19 8 -26 3z"/>
<path d="M1580 1571 c0 -5 5 -13 10 -16 6 -3 10 -2 10 4 0 5 -4 13 -10 16 -5
3 -10 2 -10 -4z"/>
<path d="M1702 1568 c-7 -7 -12 -19 -12 -27 0 -11 5 -8 16 7 18 25 15 39 -4
20z"/>
<path d="M96 1554 c-8 -21 -3 -26 18 -18 9 3 16 13 16 22 0 13 -3 12 -15 -4
-13 -16 -14 -16 -9 -1 8 22 -2 23 -10 1z"/>
<path d="M152 1550 c0 -14 2 -19 5 -12 2 6 2 18 0 25 -3 6 -5 1 -5 -13z"/>
<path d="M417 1563 c-4 -3 -7 -11 -7 -17 0 -6 5 -5 12 2 6 6 9 14 7 17 -3 3
-9 2 -12 -2z"/>
<path d="M498 1554 c20 -15 22 -24 22 -123 1 -95 2 -104 15 -87 9 12 14 39 13
65 l-1 46 -7 -50 c-6 -41 -7 -33 -7 44 0 94 0 94 -29 108 -28 13 -28 13 -6 -3z"/>
<path d="M1740 1560 c-9 -6 -13 -24 -11 -59 1 -36 -2 -51 -11 -51 -10 0 -9 -3
1 -9 13 -8 13 -12 0 -27 -12 -15 -12 -17 1 -12 11 3 16 23 18 74 2 38 8 72 15
76 6 4 9 9 6 12 -2 3 -11 1 -19 -4z"/>
<path d="M2081 1544 c0 -11 3 -14 6 -6 3 7 2 16 -1 19 -3 4 -6 -2 -5 -13z"/>
<path d="M1800 1222 c0 -356 3 -337 -59 -406 -14 -16 -19 -25 -11 -21 17 10
49 48 67 79 6 12 15 20 19 18 5 -2 10 2 12 10 2 9 0 8 -7 -2 -8 -11 -10 77 -9
318 2 182 0 332 -4 332 -5 0 -8 -147 -8 -328z"/>
<path d="M1565 1531 c-6 -11 13 -26 22 -17 4 3 1 6 -6 6 -7 0 -9 5 -6 10 3 6
4 10 1 10 -3 0 -7 -4 -11 -9z"/>
<path d="M438 1245 c-2 -157 0 -294 4 -303 4 -9 7 119 7 286 1 166 -1 302 -4
302 -2 0 -6 -128 -7 -285z"/>
<path d="M1631 1523 c4 -25 -2 -35 -18 -29 -9 4 5 -17 33 -47 27 -29 51 -52
53 -50 2 2 -4 12 -13 22 -10 11 -16 24 -13 28 3 5 1 15 -5 23 -8 12 -9 12 -4
-2 7 -22 -7 -23 -24 -3 -10 12 -9 20 4 40 14 22 15 25 1 25 -8 0 -14 -3 -14
-7z"/>
<path d="M652 1512 c2 -5 -8 -19 -22 -31 -20 -18 -21 -20 -4 -12 30 14 47 38
34 46 -6 4 -9 2 -8 -3z"/>
<path d="M581 1482 c-17 -31 -13 -40 5 -14 9 13 14 26 11 29 -3 2 -10 -4 -16
-15z"/>
<path d="M2160 1491 c0 -6 4 -13 10 -16 6 -3 7 1 4 9 -7 18 -14 21 -14 7z"/>
<path d="M66 1464 c-4 -14 -5 -29 -2 -31 3 -3 8 7 12 21 3 15 4 29 1 32 -2 3
-8 -7 -11 -22z"/>
<path d="M2175 1451 c-3 -5 -1 -12 5 -16 5 -3 10 1 10 9 0 18 -6 21 -15 7z"/>
<path d="M585 1439 c-11 -17 1 -21 15 -4 8 9 8 15 2 15 -6 0 -14 -5 -17 -11z"/>
<path d="M50 1408 c0 -9 5 -20 10 -23 13 -8 13 5 0 25 -8 13 -10 13 -10 -2z"/>
<path d="M2190 1396 c0 -8 4 -17 9 -20 5 -4 7 3 4 14 -6 23 -13 26 -13 6z"/>
<path d="M1730 1379 c0 -5 -5 -7 -11 -3 -7 4 -10 -1 -7 -12 5 -26 20 -24 24 4
2 12 2 22 -1 22 -3 0 -5 -5 -5 -11z"/>
<path d="M2163 1365 c-3 -9 -3 -19 1 -22 3 -4 6 1 6 11 0 10 5 14 12 10 7 -4
8 -3 4 4 -10 16 -15 15 -23 -3z"/>
<path d="M2201 1303 c0 -36 3 -43 9 -28 12 28 12 63 0 70 -6 4 -10 -12 -9 -42z"/>
<path d="M25 1295 c-3 -26 -4 -49 -2 -51 3 -3 8 16 12 41 3 26 4 49 2 51 -3 3
-8 -16 -12 -41z"/>
<path d="M2171 1304 c0 -11 3 -14 6 -6 3 7 2 16 -1 19 -3 4 -6 -2 -5 -13z"/>
<path d="M41 1224 c0 -11 3 -14 6 -6 3 7 2 16 -1 19 -3 4 -6 -2 -5 -13z"/>
<path d="M2217 1219 c-3 -12 -2 -31 3 -42 7 -18 9 -14 9 21 1 46 -4 54 -12 21z"/>
<path d="M932 1223 c109 -2 287 -2 396 0 108 1 19 2 -198 2 -217 0 -306 -1
-198 -2z"/>
<path d="M710 1211 c0 -7 -4 -9 -10 -6 -6 3 -7 -1 -4 -9 3 -9 2 -16 -4 -16 -6
0 -12 5 -14 11 -2 5 -15 -2 -28 -17 -14 -15 -19 -24 -12 -20 6 4 12 3 12 -3 0
-6 7 -7 17 -4 12 5 14 3 8 -7 -5 -8 -4 -11 3 -6 6 4 9 13 5 21 -3 8 0 15 6 15
12 0 35 39 27 48 -3 3 -6 0 -6 -7z m-35 -41 c-3 -5 -11 -10 -16 -10 -6 0 -7 5
-4 10 3 6 11 10 16 10 6 0 7 -4 4 -10z"/>
<path d="M1568 1194 c24 -15 45 -36 48 -50 3 -13 10 -21 15 -18 5 3 9 -3 10
-13 0 -10 3 -13 5 -6 11 25 -79 114 -112 113 -5 -1 10 -12 34 -26z"/>
<path d="M11 1125 c0 -38 2 -45 9 -28 5 12 5 34 0 50 -7 24 -8 21 -9 -22z"/>
<path d="M1560 1160 c0 -5 7 -10 16 -10 8 0 12 5 9 10 -3 6 -10 10 -16 10 -5
0 -9 -4 -9 -10z"/>
<path d="M2171 1153 c-1 -6 -4 -20 -7 -30 -5 -17 -5 -17 6 0 6 10 9 23 6 30
-3 9 -5 9 -5 0z"/>
<path d="M1516 1134 c-6 -16 2 -18 22 -5 11 7 11 9 -1 14 -9 3 -18 -1 -21 -9z"/>
<path d="M615 1129 c-4 -6 -5 -12 -2 -15 2 -3 7 2 10 11 7 17 1 20 -8 4z"/>
<path d="M710 1110 c-11 -11 -20 -32 -19 -47 1 -27 1 -26 9 5 9 37 7 35 35 50
11 6 14 12 8 12 -7 0 -22 -9 -33 -20z"/>
<path d="M810 1125 c0 -7 30 -13 34 -7 3 4 -4 9 -15 9 -10 1 -19 0 -19 -2z"/>
<path d="M1411 1112 c-17 -31 -13 -40 5 -14 9 13 14 26 11 29 -3 2 -10 -4 -16
-15z"/>
<path d="M1565 1120 c3 -5 8 -10 11 -10 2 0 4 5 4 10 0 6 -5 10 -11 10 -5 0
-7 -4 -4 -10z"/>
<path d="M2222 1080 c-1 -30 -6 -70 -11 -88 -6 -18 -6 -30 -1 -27 12 8 22 82
17 130 -3 34 -4 32 -5 -15z"/>
<path d="M661 1093 c-10 -26 -10 -27 4 -9 8 11 15 23 15 28 0 15 -7 8 -19 -19z"/>
<path d="M845 1101 c-3 -5 -1 -12 4 -15 5 -3 11 1 15 9 6 16 -9 21 -19 6z"/>
<path d="M1370 1105 c0 -5 5 -17 10 -25 5 -8 10 -10 10 -5 0 6 -5 17 -10 25
-5 8 -10 11 -10 5z"/>
<path d="M622 1070 c0 -14 2 -19 5 -12 2 6 2 18 0 25 -3 6 -5 1 -5 -13z"/>
<path d="M1581 1083 c-1 -6 4 -15 9 -18 6 -4 8 -10 6 -14 -3 -4 -1 -13 3 -19
5 -8 8 3 9 25 1 25 -2 33 -7 24 -7 -11 -9 -11 -14 0 -3 9 -6 10 -6 2z"/>
<path d="M1651 1074 c0 -11 3 -14 6 -6 3 7 2 16 -1 19 -3 4 -6 -2 -5 -13z"/>
<path d="M2171 1064 c0 -11 3 -14 6 -6 3 7 2 16 -1 19 -3 4 -6 -2 -5 -13z"/>
<path d="M1566 1057 c3 -10 9 -15 12 -12 3 3 0 11 -7 18 -10 9 -11 8 -5 -6z"/>
<path d="M857 1032 c-18 -20 -23 -37 -8 -28 5 4 11 3 14 -1 2 -5 2 -2 0 6 -2
7 2 20 8 27 17 21 5 17 -14 -4z"/>
<path d="M1396 1037 c3 -10 9 -15 12 -12 3 3 0 11 -7 18 -10 9 -11 8 -5 -6z"/>
<path d="M1640 1040 c0 -5 5 -10 10 -10 6 0 10 5 10 10 0 6 -4 10 -10 10 -5 0
-10 -4 -10 -10z"/>
<path d="M697 1023 c-4 -3 -7 -13 -7 -22 1 -13 3 -13 11 2 11 19 8 33 -4 20z"/>
<path d="M1365 1020 c3 -5 8 -10 11 -10 2 0 4 5 4 10 0 6 -5 10 -11 10 -5 0
-7 -4 -4 -10z"/>
<path d="M1581 1014 c0 -11 3 -14 6 -6 3 7 2 16 -1 19 -3 4 -6 -2 -5 -13z"/>
<path d="M22 990 c0 -19 2 -27 5 -17 2 9 2 25 0 35 -3 9 -5 1 -5 -18z"/>
<path d="M600 1011 c0 -6 4 -13 10 -16 6 -3 7 1 4 9 -7 18 -14 21 -14 7z"/>
<path d="M1547 1014 c-4 -4 -7 -12 -7 -18 0 -6 5 -4 10 4 8 13 10 13 10 -2 0
-22 -20 -34 -30 -18 -6 9 -12 10 -26 1 -13 -8 -14 -11 -4 -9 8 1 26 -4 38 -11
13 -7 26 -10 30 -7 3 3 0 6 -6 6 -9 0 -9 5 0 20 13 20 0 48 -15 34z"/>
<path d="M1407 997 c-3 -8 1 -14 8 -14 7 0 11 6 8 14 -3 7 -6 13 -8 13 -2 0
-5 -6 -8 -13z"/>
<path d="M1626 989 c-8 -12 -13 -26 -10 -31 3 -4 -1 -8 -9 -8 -7 0 -14 -7 -14
-15 0 -13 3 -13 19 2 10 9 16 18 13 21 -3 3 2 14 12 24 9 10 14 21 11 24 -3 3
-13 -5 -22 -17z"/>
<path d="M639 983 c-13 -15 -12 -15 9 -4 23 12 28 21 13 21 -5 0 -15 -7 -22
-17z"/>
<path d="M707 985 c-4 -8 -3 -16 1 -19 4 -3 9 4 9 15 2 23 -3 25 -10 4z"/>
<path d="M1360 991 c0 -6 4 -13 10 -16 6 -3 7 1 4 9 -7 18 -14 21 -14 7z"/>
<path d="M730 980 c0 -5 5 -10 11 -10 5 0 7 5 4 10 -3 6 -8 10 -11 10 -2 0 -4
-4 -4 -10z"/>
<path d="M2171 974 c0 -11 3 -14 6 -6 3 7 2 16 -1 19 -3 4 -6 -2 -5 -13z"/>
<path d="M52 945 c0 -16 2 -22 5 -12 2 9 2 23 0 30 -3 6 -5 -1 -5 -18z"/>
<path d="M630 951 c0 -5 5 -13 10 -16 6 -3 10 -2 10 4 0 5 -4 13 -10 16 -5 3
-10 2 -10 -4z"/>
<path d="M666 935 c-3 -8 0 -17 6 -21 7 -4 8 -3 4 4 -10 16 17 15 32 0 7 -7
12 -8 12 -2 0 6 -11 16 -24 22 -19 8 -25 8 -30 -3z"/>
<path d="M2211 934 c0 -11 3 -14 6 -6 3 7 2 16 -1 19 -3 4 -6 -2 -5 -13z"/>
<path d="M31 914 c0 -11 3 -14 6 -6 3 7 2 16 -1 19 -3 4 -6 -2 -5 -13z"/>
<path d="M431 904 c0 -11 3 -14 6 -6 3 7 2 16 -1 19 -3 4 -6 -2 -5 -13z"/>
<path d="M1565 910 c-3 -5 -1 -10 4 -10 6 0 11 5 11 10 0 6 -2 10 -4 10 -3 0
-8 -4 -11 -10z"/>
<path d="M2171 908 c0 -9 -4 -25 -7 -35 -5 -17 -5 -17 6 0 6 10 9 25 7 35 -4
15 -5 15 -6 0z"/>
<path d="M45 887 c-3 -12 -2 -33 3 -46 7 -20 9 -16 9 22 0 52 -4 59 -12 24z"/>
<path d="M450 882 c0 -12 19 -26 26 -19 2 2 -2 10 -11 17 -9 8 -15 8 -15 2z"/>
<path d="M958 883 c105 -2 279 -2 385 0 105 1 19 2 -193 2 -212 0 -298 -1
-192 -2z"/>
<path d="M490 832 c6 -13 14 -21 18 -18 3 4 -2 14 -12 24 -18 16 -18 16 -6 -6z"/>
<path d="M1821 834 c0 -11 3 -14 6 -6 3 7 2 16 -1 19 -3 4 -6 -2 -5 -13z"/>
<path d="M410 836 c0 -2 7 -9 15 -16 13 -11 14 -10 9 4 -5 14 -24 23 -24 12z"/>
<path d="M1790 832 c0 -6 -7 -18 -16 -26 -13 -14 -13 -16 0 -16 15 0 32 37 22
47 -3 4 -6 1 -6 -5z"/>
<path d="M2181 813 c-1 -6 -4 -20 -7 -30 -5 -17 -5 -17 6 0 6 10 9 23 6 30 -3
9 -5 9 -5 0z"/>
<path d="M503 787 c4 -10 2 -17 -5 -17 -7 0 -7 -4 1 -14 9 -11 9 -15 -1 -19
-7 -3 -8 -6 -3 -6 18 -1 41 20 28 25 -7 3 -10 11 -7 19 3 7 0 16 -7 21 -9 5
-10 2 -6 -9z"/>
<path d="M2055 790 c-4 -6 -16 -8 -28 -5 -17 5 -19 4 -7 -4 11 -8 12 -11 2
-11 -7 0 -10 -4 -7 -10 4 -6 10 -6 18 0 7 6 21 17 32 25 11 8 15 15 8 15 -6 0
-15 -5 -18 -10z"/>
<path d="M555 770 c3 -5 11 -10 16 -10 6 0 7 5 4 10 -3 6 -11 10 -16 10 -6 0
-7 -4 -4 -10z"/>
<path d="M1674 765 c-10 -8 -14 -14 -9 -14 6 0 19 6 29 14 11 8 15 15 10 15
-6 0 -19 -7 -30 -15z"/>
<path d="M2063 745 c0 -8 4 -12 9 -9 5 3 6 10 3 15 -9 13 -12 11 -12 -6z"/>
<path d="M1625 740 c-3 -6 1 -7 9 -4 18 7 21 14 7 14 -6 0 -13 -4 -16 -10z"/>
<path d="M91 714 c0 -11 3 -14 6 -6 3 7 2 16 -1 19 -3 4 -6 -2 -5 -13z"/>
<path d="M126 715 c-3 -9 -6 -22 -5 -28 0 -7 5 -1 10 12 5 13 8 26 5 28 -2 2
-6 -3 -10 -12z"/>
<path d="M2140 715 c-7 -8 -16 -13 -20 -10 -5 3 -12 0 -16 -7 -4 -7 -4 -10 1
-6 4 4 14 0 22 -10 8 -9 11 -11 7 -3 -4 9 0 19 11 27 10 8 16 16 13 19 -3 3
-11 -1 -18 -10z"/>
<path d="M678 713 c7 -3 16 -2 19 1 4 3 -2 6 -13 5 -11 0 -14 -3 -6 -6z"/>
<path d="M1545 700 c-15 -16 -21 -18 -34 -7 -14 11 -14 10 -2 -6 9 -11 18 -14
24 -8 5 5 15 8 21 7 6 -2 7 -1 3 2 -4 2 -3 10 4 18 18 22 4 17 -16 -6z"/>
<path d="M640 690 c0 -5 14 -10 32 -10 36 0 35 4 -4 14 -17 4 -28 2 -28 -4z"/>
<path d="M745 680 c-18 -8 -18 -9 5 -9 14 0 32 4 40 9 12 8 12 10 -5 9 -11 0
-29 -4 -40 -9z"/>
<path d="M1445 680 c-15 -6 -11 -7 17 -7 20 1 35 5 32 9 -6 10 -22 9 -49 -2z"/>
<path d="M126 653 c-6 -14 -5 -15 5 -6 7 7 10 15 7 18 -3 3 -9 -2 -12 -12z"/>
<path d="M833 658 c16 -6 33 -6 37 -2 5 5 -7 10 -28 10 -37 2 -37 2 -9 -8z"/>
<path d="M923 653 c9 -2 23 -2 30 0 6 3 -1 5 -18 5 -16 0 -22 -2 -12 -5z"/>
<path d="M1313 653 c9 -2 25 -2 35 0 9 3 1 5 -18 5 -19 0 -27 -2 -17 -5z"/>
<path d="M1465 650 c3 -5 8 -10 11 -10 2 0 4 5 4 10 0 6 -5 10 -11 10 -5 0 -7
-4 -4 -10z"/>
<path d="M151 634 c0 -11 3 -14 6 -6 3 7 2 16 -1 19 -3 4 -6 -2 -5 -13z"/>
<path d="M1442 630 c0 -14 2 -19 5 -12 2 6 2 18 0 25 -3 6 -5 1 -5 -13z"/>
<path d="M1486 625 c-15 -22 -15 -24 0 -18 14 5 15 3 4 -18 -10 -18 -10 -21 0
-13 9 9 22 74 14 74 -1 0 -9 -11 -18 -25z"/>
<path d="M218 552 c20 -22 25 -21 16 2 -3 9 -12 16 -20 16 -11 0 -10 -4 4 -18z"/>
<path d="M1445 559 c-4 -6 -5 -12 -2 -15 2 -3 7 2 10 11 7 17 1 20 -8 4z"/>
<path d="M1466 537 c3 -10 9 -15 12 -12 3 3 0 11 -7 18 -10 9 -11 8 -5 -6z"/>
<path d="M200 519 c0 -5 5 -7 10 -4 6 3 10 8 10 11 0 2 -4 4 -10 4 -5 0 -10
-5 -10 -11z"/>
<path d="M2012 485 c0 -16 2 -22 5 -12 2 9 2 23 0 30 -3 6 -5 -1 -5 -18z"/>
<path d="M245 480 c-3 -6 1 -7 10 -4 11 5 14 2 9 -12 -6 -15 -4 -16 6 -7 7 6
9 16 6 22 -9 14 -23 14 -31 1z"/>
<path d="M1637 439 c-9 -5 -22 -7 -27 -4 -5 3 -7 -1 -4 -9 6 -15 21 -9 63 21
11 8 -16 1 -32 -8z"/>
<path d="M260 431 c0 -10 19 -25 25 -20 1 2 -3 10 -11 17 -8 7 -14 8 -14 3z"/>
<path d="M303 429 c3 -9 1 -21 -4 -26 -5 -5 -3 -17 6 -29 8 -10 15 -14 15 -6
0 6 8 12 18 12 15 1 15 2 1 13 -8 7 -21 21 -28 32 -8 12 -11 14 -8 4z m17 -39
c0 -5 -2 -10 -4 -10 -3 0 -8 5 -11 10 -3 6 -1 10 4 10 6 0 11 -4 11 -10z"/>
<path d="M1447 420 c-3 -11 -1 -20 4 -20 5 0 9 9 9 20 0 11 -2 20 -4 20 -2 0
-6 -9 -9 -20z"/>
<path d="M1515 382 c7 -62 33 -134 46 -126 5 3 6 -1 4 -8 -7 -19 64 -101 81
-94 8 3 13 0 11 -6 -1 -6 21 -23 48 -37 42 -21 64 -25 140 -25 103 -1 152 17
228 84 44 39 103 148 94 173 -3 7 -8 -3 -12 -20 -8 -34 -31 -44 -41 -19 -3 8
-12 17 -20 20 -9 3 -12 1 -9 -4 4 -6 -12 -10 -38 -10 -49 0 -60 12 -50 52 3
12 3 20 0 17 -4 -3 -13 -38 -22 -78 -8 -40 -18 -77 -21 -82 -6 -11 -38 5 -84
42 l-34 29 -26 -25 c-27 -26 -50 -33 -50 -14 0 5 -3 8 -7 6 -5 -3 -8 7 -9 22
-2 60 -13 78 -54 95 -47 19 -50 19 -50 7 0 -5 14 -11 32 -15 33 -7 58 -23 58
-38 0 -5 -11 -1 -25 10 -16 13 -39 19 -64 18 -22 0 -37 2 -34 7 2 4 -3 7 -12
7 -8 0 -23 9 -32 20 -10 11 -23 20 -29 20 -7 0 -15 6 -18 13 -3 6 -4 -12 -1
-41z m135 -44 c0 -4 -7 -8 -15 -8 -8 0 -15 4 -15 8 0 5 7 9 15 9 8 0 15 -4 15
-9z m-57 -26 c4 9 6 7 6 -4 1 -26 -17 -31 -24 -7 -5 16 -9 18 -15 9 -5 -7 -6
-20 -3 -29 3 -12 1 -11 -7 2 -9 14 -9 22 1 33 12 14 14 14 25 -1 9 -12 13 -13
17 -3z m104 -29 c-3 -10 -5 -4 -5 12 0 17 2 24 5 18 2 -7 2 -21 0 -30z m413 9
c0 -4 -6 -14 -12 -21 -11 -11 -9 -12 10 -6 13 4 22 2 22 -4 0 -13 -37 -15 -44
-2 -8 12 3 41 15 41 5 0 9 -4 9 -8z m-113 -34 c-3 -7 -5 -2 -5 12 0 14 2 19 5
13 2 -7 2 -19 0 -25z m-147 0 c0 -6 -3 -8 -7 -5 -3 4 -13 1 -22 -6 -14 -11
-14 -10 -2 6 15 20 31 22 31 5z m55 -46 c-6 -6 -34 11 -39 24 -4 11 0 10 18
-3 13 -10 23 -19 21 -21z m-55 24 c0 -3 -4 -8 -10 -11 -5 -3 -10 -1 -10 4 0 6
5 11 10 11 6 0 10 -2 10 -4z m251 -23 c-12 -20 -14 -14 -5 12 4 9 9 14 11 11
3 -2 0 -13 -6 -23z m-321 7 c0 -5 -2 -10 -4 -10 -3 0 -8 5 -11 10 -3 6 -1 10
4 10 6 0 11 -4 11 -10z m-140 -25 c7 -8 8 -15 2 -15 -5 0 -15 7 -22 15 -7 8
-8 15 -2 15 5 0 15 -7 22 -15z"/>
<path d="M1605 390 c-3 -6 1 -7 9 -4 18 7 21 14 7 14 -6 0 -13 -4 -16 -10z"/>
<path d="M370 375 c-4 -15 -8 -29 -9 -40 -1 -5 -6 -3 -11 5 -6 9 -10 10 -10 3
0 -17 20 -27 32 -15 5 5 8 20 5 33 -2 13 -6 20 -7 14z"/>
<path d="M387 316 c-3 -8 2 -20 11 -28 15 -12 16 -11 3 5 -15 19 1 24 17 5 10
-13 12 -19 12 -38 0 -5 4 -10 9 -10 12 0 9 32 -4 45 -31 30 -43 36 -48 21z"/>
<path d="M445 310 c3 -5 8 -10 11 -10 2 0 4 5 4 10 0 6 -5 10 -11 10 -5 0 -7
-4 -4 -10z"/>
<path d="M1467 285 c-4 -8 -2 -17 3 -20 6 -4 10 3 10 14 0 25 -6 27 -13 6z"/>
<path d="M472 254 c10 -10 20 -16 22 -13 3 3 -5 11 -17 18 -21 13 -21 12 -5
-5z"/>
<path d="M1456 247 c3 -10 9 -15 12 -12 3 3 0 11 -7 18 -10 9 -11 8 -5 -6z"/>
<path d="M1490 241 c0 -11 4 -22 9 -25 4 -3 6 6 3 19 -5 30 -12 33 -12 6z"/>
<path d="M485 220 c-3 -5 -1 -10 4 -10 6 0 11 5 11 10 0 6 -2 10 -4 10 -3 0
-8 -4 -11 -10z"/>
<path d="M540 220 c-9 -6 -10 -10 -3 -10 6 0 15 5 18 10 8 12 4 12 -15 0z"/>
<path d="M514 203 c12 -22 43 -34 43 -18 0 8 -4 12 -9 9 -5 -3 -16 0 -25 8
-12 9 -15 9 -9 1z"/>
<path d="M1515 170 c3 -5 8 -10 11 -10 2 0 4 5 4 10 0 6 -5 10 -11 10 -5 0 -7
-4 -4 -10z"/>
<path d="M606 151 c-3 -5 1 -12 10 -15 20 -8 29 -1 19 13 -8 13 -22 14 -29 2z"/>
<path d="M705 150 c3 -5 8 -10 11 -10 2 0 4 5 4 10 0 6 -5 10 -11 10 -5 0 -7
-4 -4 -10z"/>
<path d="M1520 146 c0 -3 9 -15 20 -26 17 -17 20 -17 20 -4 0 14 2 15 17 3 14
-12 16 -12 11 1 -3 8 -13 15 -24 15 -10 0 -25 4 -31 8 -7 5 -13 6 -13 3z"/>
<path d="M655 120 c3 -5 8 -10 11 -10 2 0 4 5 4 10 0 6 -5 10 -11 10 -5 0 -7
-4 -4 -10z"/>
<path d="M695 111 c-3 -5 -1 -12 5 -16 5 -3 10 1 10 9 0 18 -6 21 -15 7z"/>
<path d="M870 81 c0 -10 19 -25 25 -20 1 2 -3 10 -11 17 -8 7 -14 8 -14 3z"/>
<path d="M1375 81 c30 -13 91 -24 82 -15 -4 4 -14 9 -21 10 -7 1 -29 5 -47 8
-24 4 -28 3 -14 -3z"/>
<path d="M1460 86 c0 -2 7 -7 16 -10 8 -3 12 -2 9 4 -6 10 -25 14 -25 6z"/>
<path d="M1018 73 c7 -3 16 -2 19 1 4 3 -2 6 -13 5 -11 0 -14 -3 -6 -6z"/>
<path d="M1270 70 c8 -5 20 -10 25 -10 6 0 3 5 -5 10 -8 5 -19 10 -25 10 -5 0
-3 -5 5 -10z"/>
<path d="M840 60 c-13 -8 -12 -10 3 -10 9 0 17 5 17 10 0 12 -1 12 -20 0z"/>
<path d="M1018 43 c7 -3 16 -2 19 1 4 3 -2 6 -13 5 -11 0 -14 -3 -6 -6z"/>
<path d="M1208 43 c7 -3 16 -2 19 1 4 3 -2 6 -13 5 -11 0 -14 -3 -6 -6z"/>
<path d="M923 33 c9 -2 23 -2 30 0 6 3 -1 5 -18 5 -16 0 -22 -2 -12 -5z"/>
<path d="M1303 33 c9 -2 23 -2 30 0 6 3 -1 5 -18 5 -16 0 -22 -2 -12 -5z"/>
<path d="M993 23 c9 -2 25 -2 35 0 9 3 1 5 -18 5 -19 0 -27 -2 -17 -5z"/>
<path d="M1243 23 c9 -2 23 -2 30 0 6 3 -1 5 -18 5 -16 0 -22 -2 -12 -5z"/>
</g>
</svg>
